# Blender 4.2.0
# www.blender.org
mtllib battery.mtl
o Cylinder
v 0.382683 0.592000 0.923880
v -0.707107 0.592000 0.707107
v -0.923880 0.592000 0.382683
v -1.000000 0.592000 0.000000
v -0.707107 0.592000 -0.707107
v -0.382683 0.592000 -0.923880
v 0.000000 0.592000 -1.000000
v 0.382683 0.592000 -0.923880
v 0.707107 0.592000 -0.707107
v 0.923880 0.592000 -0.382683
v 1.000000 0.592000 0.000000
v 0.923880 0.592000 0.382683
v 0.707107 0.592000 0.707107
v 0.000000 0.592000 1.000000
v -0.382683 0.592000 0.923880
v -0.923880 0.592000 -0.382683
v 0.000000 -1.600000 -0.891434
v 0.000000 -1.493520 -1.000000
v 0.000000 -1.568813 -0.968202
v 0.341137 -1.600000 -0.823578
v 0.382683 -1.493520 -0.923880
v 0.370515 -1.568813 -0.894502
v 0.630339 -1.600000 -0.630339
v 0.707107 -1.493520 -0.707107
v 0.684622 -1.568813 -0.684622
v 0.823578 -1.600000 -0.341137
v 0.923880 -1.493520 -0.382683
v 0.894502 -1.568813 -0.370515
v 0.891434 -1.600000 0.000000
v 1.000000 -1.493520 0.000000
v 0.968202 -1.568813 0.000000
v 0.823578 -1.600000 0.341137
v 0.923880 -1.493520 0.382683
v 0.894502 -1.568813 0.370515
v 0.630339 -1.600000 0.630339
v 0.707107 -1.493520 0.707107
v 0.684622 -1.568813 0.684622
v 0.341137 -1.600000 0.823578
v 0.382683 -1.493520 0.923880
v 0.370515 -1.568813 0.894502
v 0.000000 -1.600000 0.891434
v 0.000000 -1.493520 1.000000
v 0.000000 -1.568813 0.968202
v -0.341137 -1.600000 0.823578
v -0.382683 -1.493520 0.923880
v -0.370515 -1.568813 0.894502
v -0.630339 -1.600000 0.630339
v -0.707107 -1.493520 0.707107
v -0.684622 -1.568813 0.684622
v -0.823578 -1.600000 0.341137
v -0.923880 -1.493520 0.382683
v -0.894502 -1.568813 0.370515
v -0.891434 -1.600000 0.000000
v -1.000000 -1.493520 0.000000
v -0.968202 -1.568813 0.000000
v -0.823578 -1.600000 -0.341137
v -0.923880 -1.493520 -0.382683
v -0.894502 -1.568813 -0.370515
v -0.630339 -1.600000 -0.630339
v -0.707107 -1.493520 -0.707107
v -0.684622 -1.568813 -0.684622
v -0.341137 -1.600000 -0.823578
v -0.382683 -1.493520 -0.923880
v -0.370515 -1.568813 -0.894502
vn 0.3827 -0.0000 0.9239
vn -0.7071 -0.0000 0.7071
vn -0.9239 -0.0000 0.3827
vn -1.0000 -0.0000 -0.0000
vn -0.7071 -0.0000 -0.7071
vn -0.3827 -0.0000 -0.9239
vn -0.0000 -0.0000 -1.0000
vn 0.3827 -0.0000 -0.9239
vn 0.7071 -0.0000 -0.7071
vn 0.9239 -0.0000 -0.3827
vn 1.0000 -0.0000 -0.0000
vn 0.9239 -0.0000 0.3827
vn 0.7071 -0.0000 0.7071
vn -0.0000 -0.0000 1.0000
vn -0.3827 -0.0000 0.9239
vn -0.9239 -0.0000 -0.3827
vn -0.0000 -0.9767 -0.2146
vn -0.0000 -0.1938 -0.9810
vn -0.0000 -0.6889 -0.7249
vn 0.0821 -0.9767 -0.1983
vn 0.3754 -0.1938 -0.9064
vn 0.2774 -0.6889 -0.6697
vn 0.1518 -0.9767 -0.1518
vn 0.6937 -0.1938 -0.6937
vn 0.5126 -0.6889 -0.5126
vn 0.1983 -0.9767 -0.0821
vn 0.9064 -0.1938 -0.3754
vn 0.6697 -0.6889 -0.2774
vn 0.2146 -0.9767 -0.0000
vn 0.9810 -0.1938 -0.0000
vn 0.7249 -0.6889 -0.0000
vn 0.1983 -0.9767 0.0821
vn 0.9064 -0.1938 0.3754
vn 0.6697 -0.6889 0.2774
vn 0.1518 -0.9767 0.1518
vn 0.6937 -0.1938 0.6937
vn 0.5126 -0.6889 0.5126
vn 0.0821 -0.9767 0.1983
vn 0.3754 -0.1938 0.9064
vn 0.2774 -0.6889 0.6697
vn -0.0000 -0.9767 0.2146
vn -0.0000 -0.1938 0.9810
vn -0.0000 -0.6889 0.7249
vn -0.0821 -0.9767 0.1983
vn -0.3754 -0.1938 0.9064
vn -0.2774 -0.6889 0.6697
vn -0.1518 -0.9767 0.1518
vn -0.6937 -0.1938 0.6937
vn -0.5126 -0.6889 0.5126
vn -0.1983 -0.9767 0.0821
vn -0.9064 -0.1938 0.3754
vn -0.6697 -0.6889 0.2774
vn -0.2146 -0.9767 -0.0000
vn -0.9810 -0.1938 -0.0000
vn -0.7249 -0.6889 -0.0000
vn -0.1983 -0.9767 -0.0821
vn -0.9064 -0.1938 -0.3754
vn -0.6697 -0.6889 -0.2774
vn -0.1518 -0.9767 -0.1518
vn -0.6937 -0.1938 -0.6937
vn -0.5126 -0.6889 -0.5126
vn -0.0821 -0.9767 -0.1983
vn -0.3754 -0.1938 -0.9064
vn -0.2774 -0.6889 -0.6697
vt 0.875000 0.516638
vt 0.875000 0.825000
vt 0.812500 0.825000
vt 0.812500 0.516637
vt 0.812500 0.516638
vt 0.750000 0.825000
vt 0.750000 0.516637
vt 0.750000 0.516638
vt 0.687500 0.825000
vt 0.687500 0.516637
vt 0.687500 0.516638
vt 0.625000 0.825000
vt 0.625000 0.516637
vt 0.625000 0.516638
vt 0.562500 0.825000
vt 0.562500 0.516637
vt 0.562500 0.516638
vt 0.500000 0.825000
vt 0.500000 0.516637
vt 0.500000 0.516638
vt 0.437500 0.825000
vt 0.437500 0.516637
vt 0.437500 0.516638
vt 0.375000 0.825000
vt 0.375000 0.516637
vt 0.375000 0.516638
vt 0.312500 0.825000
vt 0.312500 0.516637
vt 0.312500 0.516638
vt 0.250000 0.825000
vt 0.250000 0.516637
vt 0.250000 0.516638
vt 0.187500 0.825000
vt 0.187500 0.516637
vt 0.187500 0.516638
vt 0.125000 0.825000
vt 0.125000 0.516637
vt 0.125000 0.516638
vt 0.062500 0.825000
vt 0.062500 0.516637
vt 0.937500 0.516638
vt 0.937500 0.825000
vt 0.875000 0.516637
vt 0.062500 0.516638
vt 0.000000 0.825000
vt 0.000000 0.516637
vt 0.750000 0.463944
vt 0.831873 0.447659
vt 0.901281 0.401281
vt 0.947659 0.331873
vt 0.963944 0.250000
vt 0.947659 0.168127
vt 0.901281 0.098719
vt 0.831873 0.052341
vt 0.750000 0.036056
vt 0.668127 0.052341
vt 0.598719 0.098719
vt 0.552341 0.168127
vt 0.536056 0.250000
vt 0.552341 0.331873
vt 0.598719 0.401281
vt 0.668127 0.447659
vt 1.000000 0.516638
vt 0.937500 0.516637
vt 0.938494 0.500000
vt 0.999006 0.500000
vt 0.751460 0.489710
vt 0.840384 0.472022
vt 0.875994 0.500000
vt 0.936506 0.500000
vt 0.843082 0.470904
vt 0.918468 0.420533
vt 0.813494 0.500000
vt 0.874006 0.500000
vt 0.920533 0.418468
vt 0.970904 0.343082
vt 0.750994 0.500000
vt 0.811506 0.500000
vt 0.972022 0.340384
vt 0.989709 0.251460
vt 0.688494 0.500000
vt 0.749006 0.500000
vt 0.989710 0.248540
vt 0.972022 0.159616
vt 0.625994 0.500000
vt 0.686506 0.500000
vt 0.970904 0.156918
vt 0.920533 0.081532
vt 0.563494 0.500000
vt 0.624006 0.500000
vt 0.918468 0.079467
vt 0.843082 0.029096
vt 0.500994 0.500000
vt 0.561506 0.500000
vt 0.840384 0.027978
vt 0.751460 0.010290
vt 0.438494 0.500000
vt 0.499006 0.500000
vt 0.748540 0.010290
vt 0.659616 0.027978
vt 0.375994 0.500000
vt 0.436506 0.500000
vt 0.656918 0.029096
vt 0.581532 0.079467
vt 0.313494 0.500000
vt 0.374006 0.500000
vt 0.579467 0.081532
vt 0.529096 0.156918
vt 0.250994 0.500000
vt 0.311506 0.500000
vt 0.527978 0.159616
vt 0.510291 0.248540
vt 0.188494 0.500000
vt 0.249006 0.500000
vt 0.510291 0.251460
vt 0.527978 0.340384
vt 0.125994 0.500000
vt 0.186506 0.500000
vt 0.529096 0.343082
vt 0.579467 0.418468
vt 0.063494 0.500000
vt 0.124006 0.500000
vt 0.581532 0.420533
vt 0.656918 0.470904
vt 0.000994 0.500000
vt 0.061506 0.500000
vt 0.659616 0.472022
vt 0.748540 0.489710
vt 1.000000 0.825000
s 1
f 24/1/24 9/2/9 10/3/10 27/4/27
f 27/5/27 10/3/10 11/6/11 30/7/30
f 30/8/30 11/6/11 12/9/12 33/10/33
f 33/11/33 12/9/12 13/12/13 36/13/36
f 36/14/36 13/12/13 1/15/1 39/16/39
f 39/17/39 1/15/1 14/18/14 42/19/42
f 42/20/42 14/18/14 15/21/15 45/22/45
f 45/23/45 15/21/15 2/24/2 48/25/48
f 48/26/48 2/24/2 3/27/3 51/28/51
f 51/29/51 3/27/3 4/30/4 54/31/54
f 54/32/54 4/30/4 16/33/16 57/34/57
f 57/35/57 16/33/16 5/36/5 60/37/60
f 60/38/60 5/36/5 6/39/6 63/40/63
f 21/41/21 8/42/8 9/2/9 24/43/24
f 63/44/63 6/39/6 7/45/7 18/46/18
f 17/47/17 20/48/20 23/49/23 26/50/26 29/51/29 32/52/32 35/53/35 38/54/38 41/55/41 44/56/44 47/57/47 50/58/50 53/59/53 56/60/56 59/61/59 62/62/62
f 18/63/18 21/64/21 22/65/22 19/66/19
f 19/67/19 22/68/22 20/48/20 17/47/17
f 21/41/21 24/43/24 25/69/25 22/70/22
f 22/71/22 25/72/25 23/49/23 20/48/20
f 24/1/24 27/4/27 28/73/28 25/74/25
f 25/75/25 28/76/28 26/50/26 23/49/23
f 27/5/27 30/7/30 31/77/31 28/78/28
f 28/79/28 31/80/31 29/51/29 26/50/26
f 30/8/30 33/10/33 34/81/34 31/82/31
f 31/83/31 34/84/34 32/52/32 29/51/29
f 33/11/33 36/13/36 37/85/37 34/86/34
f 34/87/34 37/88/37 35/53/35 32/52/32
f 36/14/36 39/16/39 40/89/40 37/90/37
f 37/91/37 40/92/40 38/54/38 35/53/35
f 39/17/39 42/19/42 43/93/43 40/94/40
f 40/95/40 43/96/43 41/55/41 38/54/38
f 42/20/42 45/22/45 46/97/46 43/98/43
f 43/99/43 46/100/46 44/56/44 41/55/41
f 45/23/45 48/25/48 49/101/49 46/102/46
f 46/103/46 49/104/49 47/57/47 44/56/44
f 48/26/48 51/28/51 52/105/52 49/106/49
f 49/107/49 52/108/52 50/58/50 47/57/47
f 51/29/51 54/31/54 55/109/55 52/110/52
f 52/111/52 55/112/55 53/59/53 50/58/50
f 54/32/54 57/34/57 58/113/58 55/114/55
f 55/115/55 58/116/58 56/60/56 53/59/53
f 57/35/57 60/37/60 61/117/61 58/118/58
f 58/119/58 61/120/61 59/61/59 56/60/56
f 60/38/60 63/40/63 64/121/64 61/122/61
f 61/123/61 64/124/64 62/62/62 59/61/59
f 63/44/63 18/46/18 19/125/19 64/126/64
f 64/127/64 19/128/19 17/47/17 62/62/62
f 18/63/18 7/129/7 8/42/8 21/64/21
o Cylinder.001
v 0.382683 0.592000 0.923880
v -0.707107 0.592000 0.707107
v -0.923880 0.592000 0.382683
v -1.000000 0.592000 0.000000
v -0.707107 0.592000 -0.707107
v -0.382683 0.592000 -0.923880
v 0.000000 0.592000 -1.000000
v 0.382683 0.592000 -0.923880
v 0.707107 0.592000 -0.707107
v 0.923880 0.592000 -0.382683
v 1.000000 0.592000 0.000000
v 0.923880 0.592000 0.382683
v 0.707107 0.592000 0.707107
v 0.000000 0.592000 1.000000
v -0.382683 0.592000 0.923880
v -0.923880 0.592000 -0.382683
v 0.000000 1.600000 -0.338700
v 0.000000 1.493520 -1.000000
v 0.000000 1.568813 -0.968202
v 0.129615 1.600000 -0.312918
v 0.382683 1.493520 -0.923880
v 0.370515 1.568813 -0.894502
v 0.239497 1.600000 -0.239497
v 0.707107 1.493520 -0.707107
v 0.684622 1.568813 -0.684622
v 0.312918 1.600000 -0.129615
v 0.923880 1.493520 -0.382683
v 0.894502 1.568813 -0.370515
v 0.338700 1.600000 0.000000
v 1.000000 1.493520 0.000000
v 0.968202 1.568813 0.000000
v 0.312918 1.600000 0.129615
v 0.923880 1.493520 0.382683
v 0.894502 1.568813 0.370515
v 0.239497 1.600000 0.239497
v 0.707107 1.493520 0.707107
v 0.684622 1.568813 0.684622
v 0.129615 1.600000 0.312918
v 0.382683 1.493520 0.923880
v 0.370515 1.568813 0.894502
v 0.000000 1.600000 0.338700
v 0.000000 1.493520 1.000000
v 0.000000 1.568813 0.968202
v -0.129615 1.600000 0.312918
v -0.382683 1.493520 0.923880
v -0.370515 1.568813 0.894502
v -0.239497 1.600000 0.239497
v -0.707107 1.493520 0.707107
v -0.684622 1.568813 0.684622
v -0.312918 1.600000 0.129615
v -0.923880 1.493520 0.382683
v -0.894502 1.568813 0.370515
v -0.338700 1.600000 0.000000
v -1.000000 1.493520 0.000000
v -0.968202 1.568813 0.000000
v -0.312918 1.600000 -0.129615
v -0.923880 1.493520 -0.382683
v -0.894502 1.568813 -0.370515
v -0.239497 1.600000 -0.239497
v -0.707107 1.493520 -0.707107
v -0.684622 1.568813 -0.684622
v -0.129615 1.600000 -0.312918
v -0.382683 1.493520 -0.923880
v -0.370515 1.568813 -0.894502
v 0.000000 1.600000 -0.891434
v 0.341137 1.600000 -0.823578
v 0.630339 1.600000 -0.630339
v 0.823578 1.600000 -0.341137
v 0.891434 1.600000 0.000000
v 0.823578 1.600000 0.341137
v 0.630339 1.600000 0.630339
v 0.341137 1.600000 0.823578
v 0.000000 1.600000 0.891434
v -0.341137 1.600000 0.823578
v -0.630339 1.600000 0.630339
v -0.823578 1.600000 0.341137
v -0.891434 1.600000 0.000000
v -0.823578 1.600000 -0.341137
v -0.630339 1.600000 -0.630339
v -0.341137 1.600000 -0.823578
v -0.000000 1.688053 -0.338700
v -0.000000 1.752545 -0.272945
v 0.104451 1.752545 -0.252168
v 0.129615 1.688053 -0.312918
v 0.193001 1.752545 -0.193001
v 0.239497 1.688053 -0.239497
v 0.252168 1.752545 -0.104451
v 0.312918 1.688053 -0.129615
v 0.272945 1.752545 0.000000
v 0.338700 1.688053 0.000000
v 0.252168 1.752545 0.104451
v 0.312918 1.688053 0.129615
v 0.193001 1.752545 0.193001
v 0.239497 1.688053 0.239497
v 0.104451 1.752545 0.252168
v 0.129615 1.688053 0.312918
v -0.000000 1.752545 0.272945
v -0.000000 1.688053 0.338700
v -0.104451 1.752545 0.252168
v -0.129615 1.688053 0.312918
v -0.193001 1.752545 0.193001
v -0.239497 1.688053 0.239497
v -0.252168 1.752545 0.104451
v -0.312918 1.688053 0.129615
v -0.272945 1.752545 -0.000000
v -0.338700 1.688053 0.000000
v -0.252168 1.752545 -0.104451
v -0.312918 1.688053 -0.129615
v -0.193001 1.752545 -0.193001
v -0.239497 1.688053 -0.239497
v -0.104451 1.752545 -0.252168
v -0.129615 1.688053 -0.312918
vn 0.3827 -0.0000 0.9239
vn -0.7071 -0.0000 0.7071
vn -0.9239 -0.0000 0.3827
vn -1.0000 -0.0000 -0.0000
vn -0.7071 -0.0000 -0.7071
vn -0.3827 -0.0000 -0.9239
vn -0.0000 -0.0000 -1.0000
vn 0.3827 -0.0000 -0.9239
vn 0.7071 -0.0000 -0.7071
vn 0.9239 -0.0000 -0.3827
vn 1.0000 -0.0000 -0.0000
vn 0.9239 -0.0000 0.3827
vn 0.7071 -0.0000 0.7071
vn -0.0000 -0.0000 1.0000
vn -0.3827 -0.0000 0.9239
vn -0.9239 -0.0000 -0.3827
vn -0.0000 0.7538 -0.6571
vn -0.0000 0.1938 -0.9810
vn -0.0000 0.6889 -0.7249
vn 0.2515 0.7538 -0.6071
vn 0.3754 0.1938 -0.9064
vn 0.2774 0.6889 -0.6697
vn 0.4647 0.7538 -0.4647
vn 0.6937 0.1938 -0.6937
vn 0.5126 0.6889 -0.5126
vn 0.6071 0.7538 -0.2515
vn 0.9064 0.1938 -0.3754
vn 0.6697 0.6889 -0.2774
vn 0.6571 0.7538 -0.0000
vn 0.9810 0.1938 -0.0000
vn 0.7249 0.6889 -0.0000
vn 0.6071 0.7538 0.2515
vn 0.9064 0.1938 0.3754
vn 0.6697 0.6889 0.2774
vn 0.4647 0.7538 0.4647
vn 0.6937 0.1938 0.6937
vn 0.5126 0.6889 0.5126
vn 0.2515 0.7538 0.6071
vn 0.3754 0.1938 0.9064
vn 0.2774 0.6889 0.6697
vn -0.0000 0.7538 0.6571
vn -0.0000 0.1938 0.9810
vn -0.0000 0.6889 0.7249
vn -0.2515 0.7538 0.6071
vn -0.3754 0.1938 0.9064
vn -0.2774 0.6889 0.6697
vn -0.4647 0.7538 0.4647
vn -0.6937 0.1938 0.6937
vn -0.5126 0.6889 0.5126
vn -0.6071 0.7538 0.2515
vn -0.9064 0.1938 0.3754
vn -0.6697 0.6889 0.2774
vn -0.6571 0.7538 -0.0000
vn -0.9810 0.1938 -0.0000
vn -0.7249 0.6889 -0.0000
vn -0.6071 0.7538 -0.2515
vn -0.9064 0.1938 -0.3754
vn -0.6697 0.6889 -0.2774
vn -0.4647 0.7538 -0.4647
vn -0.6937 0.1938 -0.6937
vn -0.5126 0.6889 -0.5126
vn -0.2515 0.7538 -0.6071
vn -0.3754 0.1938 -0.9064
vn -0.2774 0.6889 -0.6697
vn -0.0000 0.9767 -0.2146
vn 0.0821 0.9767 -0.1983
vn 0.1518 0.9767 -0.1518
vn 0.1983 0.9767 -0.0821
vn 0.2146 0.9767 -0.0000
vn 0.1983 0.9767 0.0821
vn 0.1518 0.9767 0.1518
vn 0.0821 0.9767 0.1983
vn -0.0000 0.9767 0.2146
vn -0.0821 0.9767 0.1983
vn -0.1518 0.9767 0.1518
vn -0.1983 0.9767 0.0821
vn -0.2146 0.9767 -0.0000
vn -0.1983 0.9767 -0.0821
vn -0.1518 0.9767 -0.1518
vn -0.0821 0.9767 -0.1983
vn -0.0000 0.3710 -0.9286
vn -0.0000 0.9088 -0.4172
vn 0.1597 0.9088 -0.3855
vn 0.3554 0.3710 -0.8580
vn 0.2950 0.9088 -0.2950
vn 0.6566 0.3710 -0.6566
vn 0.3855 0.9088 -0.1597
vn 0.8580 0.3710 -0.3554
vn 0.4172 0.9088 -0.0000
vn 0.9286 0.3710 -0.0000
vn 0.3855 0.9088 0.1597
vn 0.8580 0.3710 0.3554
vn 0.2950 0.9088 0.2950
vn 0.6566 0.3710 0.6566
vn 0.1597 0.9088 0.3855
vn 0.3554 0.3710 0.8580
vn -0.0000 0.9088 0.4172
vn -0.0000 0.3710 0.9286
vn -0.1597 0.9088 0.3855
vn -0.3554 0.3710 0.8580
vn -0.2950 0.9088 0.2950
vn -0.6566 0.3710 0.6566
vn -0.3855 0.9088 0.1597
vn -0.8580 0.3710 0.3554
vn -0.4172 0.9088 -0.0000
vn -0.9286 0.3710 -0.0000
vn -0.3855 0.9088 -0.1597
vn -0.8580 0.3710 -0.3554
vn -0.2950 0.9088 -0.2950
vn -0.6566 0.3710 -0.6566
vn -0.1597 0.9088 -0.3855
vn -0.3554 0.3710 -0.8580
vt 0.062500 0.842500
vt 0.062500 0.983363
vt 0.000000 0.983362
vt 0.000000 0.842500
vt 1.000000 0.842500
vt 1.000000 0.983363
vt 0.937500 0.983362
vt 0.937500 0.842500
vt 0.218892 0.325100
vt 0.192521 0.307479
vt 0.218892 0.325100
vt 0.125000 0.842500
vt 0.125000 0.983363
vt 0.187500 0.842500
vt 0.187500 0.983363
vt 0.250000 0.842500
vt 0.250000 0.983363
vt 0.187500 0.983362
vt 0.312500 0.842500
vt 0.312500 0.983363
vt 0.250000 0.983362
vt 0.375000 0.842500
vt 0.375000 0.983363
vt 0.437500 0.842500
vt 0.437500 0.983363
vt 0.500000 0.842500
vt 0.500000 0.983363
vt 0.437500 0.983362
vt 0.562500 0.842500
vt 0.562500 0.983363
vt 0.500000 0.983362
vt 0.625000 0.842500
vt 0.625000 0.983363
vt 0.687500 0.842500
vt 0.687500 0.983363
vt 0.750000 0.842500
vt 0.750000 0.983363
vt 0.687500 0.983362
vt 0.812500 0.842500
vt 0.812500 0.983363
vt 0.750000 0.983362
vt 0.875000 0.842500
vt 0.875000 0.983363
vt 0.937500 0.983363
vt 0.999006 1.000000
vt 0.938494 1.000000
vt 0.340384 0.472022
vt 0.251460 0.489710
vt 0.250000 0.463944
vt 0.331873 0.447659
vt 0.936506 1.000000
vt 0.875994 1.000000
vt 0.418468 0.420533
vt 0.343082 0.470904
vt 0.401281 0.401281
vt 0.874006 1.000000
vt 0.813494 1.000000
vt 0.470904 0.343082
vt 0.420533 0.418468
vt 0.447659 0.331873
vt 0.811506 1.000000
vt 0.750994 1.000000
vt 0.489710 0.251460
vt 0.472022 0.340384
vt 0.463944 0.250000
vt 0.749006 1.000000
vt 0.688494 1.000000
vt 0.472022 0.159616
vt 0.489710 0.248540
vt 0.447659 0.168127
vt 0.686506 1.000000
vt 0.625994 1.000000
vt 0.420533 0.081532
vt 0.470904 0.156918
vt 0.401281 0.098719
vt 0.624006 1.000000
vt 0.563494 1.000000
vt 0.343082 0.029096
vt 0.418468 0.079467
vt 0.331873 0.052341
vt 0.561506 1.000000
vt 0.500994 1.000000
vt 0.251460 0.010290
vt 0.340384 0.027978
vt 0.250000 0.036056
vt 0.499006 1.000000
vt 0.438494 1.000000
vt 0.159616 0.027978
vt 0.248540 0.010290
vt 0.168127 0.052341
vt 0.436506 1.000000
vt 0.375994 1.000000
vt 0.081532 0.079467
vt 0.156918 0.029096
vt 0.098719 0.098719
vt 0.374006 1.000000
vt 0.313494 1.000000
vt 0.029096 0.156918
vt 0.079467 0.081532
vt 0.052341 0.168127
vt 0.311506 1.000000
vt 0.250994 1.000000
vt 0.010290 0.248540
vt 0.027978 0.159616
vt 0.036056 0.250000
vt 0.249006 1.000000
vt 0.188494 1.000000
vt 0.027978 0.340384
vt 0.010290 0.251460
vt 0.052341 0.331873
vt 0.186506 1.000000
vt 0.125994 1.000000
vt 0.079467 0.418468
vt 0.029096 0.343082
vt 0.098719 0.401281
vt 0.124006 1.000000
vt 0.063494 1.000000
vt 0.156918 0.470904
vt 0.081532 0.420533
vt 0.168127 0.447659
vt 0.061506 1.000000
vt 0.000994 1.000000
vt 0.248540 0.489710
vt 0.159616 0.472022
vt 0.250000 0.331288
vt 0.281108 0.325100
vt 0.307479 0.307479
vt 0.325100 0.281108
vt 0.331288 0.250000
vt 0.325100 0.218892
vt 0.307479 0.192521
vt 0.281108 0.174900
vt 0.250000 0.168712
vt 0.218892 0.174900
vt 0.192521 0.192521
vt 0.174900 0.218892
vt 0.168712 0.250000
vt 0.174900 0.281108
vt 0.275068 0.310520
vt 0.250000 0.315507
vt 0.224932 0.310520
vt 0.203680 0.296320
vt 0.189480 0.275068
vt 0.184493 0.250000
vt 0.189480 0.224932
vt 0.203680 0.203680
vt 0.224932 0.189480
vt 0.250000 0.184493
vt 0.275068 0.189480
vt 0.296320 0.203680
vt 0.310520 0.224932
vt 0.315507 0.250000
vt 0.310520 0.275068
vt 0.296320 0.296320
vt 0.192521 0.192521
vt 0.174900 0.218892
vt 0.325100 0.218892
s 1
f 70/130/70 127/131/127 82/132/82 71/133/71
f 71/134/71 82/135/82 85/136/85 72/137/72
f 126/138/126 123/139/123 174/139/174 176/140/176
f 69/141/69 124/142/124 127/131/127 70/130/70
f 80/143/80 121/144/121 124/142/124 69/141/69
f 68/145/68 118/146/118 121/147/121 80/143/80
f 67/148/67 115/149/115 118/150/118 68/145/68
f 66/151/66 112/152/112 115/149/115 67/148/67
f 79/153/79 109/154/109 112/152/112 66/151/66
f 78/155/78 106/156/106 109/157/109 79/153/79
f 65/158/65 103/159/103 106/160/106 78/155/78
f 77/161/77 100/162/100 103/159/103 65/158/65
f 76/163/76 97/164/97 100/162/100 77/161/77
f 75/165/75 94/166/94 97/167/97 76/163/76
f 74/168/74 91/169/91 94/170/94 75/165/75
f 73/171/73 88/172/88 91/169/91 74/168/74
f 72/137/72 85/173/85 88/172/88 73/171/73
f 85/136/85 82/135/82 83/174/83 86/175/86
f 86/176/86 83/177/83 129/178/129 130/179/130
f 88/172/88 85/173/85 86/180/86 89/181/89
f 89/182/89 86/183/86 130/179/130 131/184/131
f 91/169/91 88/172/88 89/185/89 92/186/92
f 92/187/92 89/188/89 131/184/131 132/189/132
f 94/170/94 91/169/91 92/190/92 95/191/95
f 95/192/95 92/193/92 132/189/132 133/194/133
f 97/167/97 94/166/94 95/195/95 98/196/98
f 98/197/98 95/198/95 133/194/133 134/199/134
f 100/162/100 97/164/97 98/200/98 101/201/101
f 101/202/101 98/203/98 134/199/134 135/204/135
f 103/159/103 100/162/100 101/205/101 104/206/104
f 104/207/104 101/208/101 135/204/135 136/209/136
f 106/160/106 103/159/103 104/210/104 107/211/107
f 107/212/107 104/213/104 136/209/136 137/214/137
f 109/157/109 106/156/106 107/215/107 110/216/110
f 110/217/110 107/218/107 137/214/137 138/219/138
f 112/152/112 109/154/109 110/220/110 113/221/113
f 113/222/113 110/223/110 138/219/138 139/224/139
f 115/149/115 112/152/112 113/225/113 116/226/116
f 116/227/116 113/228/113 139/224/139 140/229/140
f 118/150/118 115/149/115 116/230/116 119/231/119
f 119/232/119 116/233/116 140/229/140 141/234/141
f 121/147/121 118/146/118 119/235/119 122/236/122
f 122/237/122 119/238/119 141/234/141 142/239/142
f 124/142/124 121/144/121 122/240/122 125/241/125
f 125/242/125 122/243/122 142/239/142 143/244/143
f 127/131/127 124/142/124 125/245/125 128/246/128
f 128/247/128 125/248/125 143/244/143 144/249/144
f 82/132/82 127/131/127 128/250/128 83/251/83
f 83/252/83 128/253/128 144/249/144 129/178/129
f 81/254/81 84/255/84 130/179/130 129/178/129
f 84/255/84 87/256/87 131/184/131 130/179/130
f 87/256/87 90/257/90 132/189/132 131/184/131
f 90/257/90 93/258/93 133/194/133 132/189/132
f 93/258/93 96/259/96 134/199/134 133/194/133
f 96/259/96 99/260/99 135/204/135 134/199/134
f 99/260/99 102/261/102 136/209/136 135/204/135
f 102/261/102 105/262/105 137/214/137 136/209/136
f 105/262/105 108/263/108 138/219/138 137/214/137
f 108/263/108 111/264/111 139/224/139 138/219/138
f 111/264/111 114/265/114 140/229/140 139/224/139
f 114/265/114 117/266/117 141/234/141 140/229/140
f 117/266/117 120/267/120 142/239/142 141/234/141
f 120/267/120 123/139/123 143/244/143 142/239/142
f 123/139/123 126/138/126 144/249/144 143/244/143
f 126/138/126 81/254/81 129/178/129 144/249/144
f 81/254/81 126/138/126 176/138/176 145/254/145
f 105/262/105 102/261/102 160/261/160 162/262/162
f 108/263/108 105/262/105 162/262/162 164/263/164
f 147/268/147 146/269/146 175/270/175 173/271/173 171/272/171 169/273/169 167/274/167 165/275/165 163/276/163 161/277/161 159/278/159 157/279/157 155/280/155 153/281/153 151/282/151 149/283/149
f 87/256/87 84/255/84 148/255/148 150/256/150
f 111/264/111 108/263/108 164/263/164 166/284/166
f 90/257/90 87/256/87 150/256/150 152/257/152
f 114/265/114 111/264/111 166/264/166 168/285/168
f 93/258/93 90/257/90 152/257/152 154/258/154
f 117/266/117 114/265/114 168/265/168 170/266/170
f 96/259/96 93/258/93 154/258/154 156/286/156
f 120/267/120 117/266/117 170/266/170 172/267/172
f 99/260/99 96/259/96 156/259/156 158/260/158
f 123/139/123 120/267/120 172/267/172 174/139/174
f 102/261/102 99/260/99 158/260/158 160/261/160
f 146/269/146 147/268/147 148/255/148 145/254/145
f 147/268/147 149/283/149 150/256/150 148/255/148
f 149/283/149 151/282/151 152/257/152 150/256/150
f 151/282/151 153/281/153 154/258/154 152/257/152
f 153/281/153 155/280/155 156/286/156 154/258/154
f 155/280/155 157/279/157 158/260/158 156/259/156
f 157/279/157 159/278/159 160/261/160 158/260/158
f 159/278/159 161/277/161 162/262/162 160/261/160
f 161/277/161 163/276/163 164/263/164 162/262/162
f 163/276/163 165/275/165 166/284/166 164/263/164
f 165/275/165 167/274/167 168/285/168 166/264/166
f 167/274/167 169/273/169 170/266/170 168/265/168
f 169/273/169 171/272/171 172/267/172 170/266/170
f 171/272/171 173/271/173 174/139/174 172/267/172
f 173/271/173 175/270/175 176/140/176 174/139/174
f 175/270/175 146/269/146 145/254/145 176/138/176
f 84/255/84 81/254/81 145/254/145 148/255/148
